<?xml version="1.0" encoding="UTF-8"?>
<svg width="100px" height="100px" viewBox="219 -8 45 45" version="1.1" xmlns="http://www.w3.org/2000/svg" xmlns:xlink="http://www.w3.org/1999/xlink">
    <title>freeCodeCamp logo</title>
    <defs></defs>
    <g id="Page-1" stroke="none" stroke-width="1" fill="none" fill-rule="evenodd">
        <g id="freeCodeCamp_logo" transform="translate(-4.000000, -6.000000)" fill="#575757">
            <g id="freeCodeCamp" transform="translate(4.000000, 6.000000)">
                <path d="M219.39353,14.2310071 C219.39353,9.63480963 220.949168,5.57934129 224.109057,1.99086628 C225.251479,0.663622092 226.175139,0.024578596 226.807116,0.024578596 C227.025878,0.024578596 227.268946,0.073735788 227.439094,0.24578596 C227.609242,0.417836132 227.730776,0.589886304 227.730776,0.835672264 C227.730776,1.17977261 227.31756,1.69592312 226.515434,2.50701679 C223.234011,5.70223427 221.581146,9.63480963 221.581146,14.3539001 C221.581146,19.589141 223.306932,23.8166595 226.685582,27.0610342 C227.366174,27.7000777 227.730776,28.2162282 227.730776,28.6340643 C227.730776,28.8552717 227.609242,29.1010577 227.439094,29.2731078 C227.268946,29.445158 227.025878,29.568051 226.807116,29.568051 C226.004991,29.568051 224.911183,28.6340643 223.477079,26.7906696 C220.7061,23.3496662 219.39353,19.1713049 219.39353,14.2310071 L219.39353,14.2310071 L219.39353,14.2310071 Z" id="path29_1_"></path>
                <path d="M262.854159,15.3862011 C262.854159,19.9823986 261.298521,24.0378669 258.138632,27.6263419 C256.996211,28.9535861 256.072551,29.5926296 255.440573,29.5926296 C255.221811,29.5926296 254.978743,29.5434724 254.808595,29.3714222 C254.638447,29.1993721 254.516913,28.9535861 254.516913,28.7323787 C254.516913,28.3882784 254.930129,27.8721279 255.732255,27.1101914 C259.013678,23.9149739 260.666543,19.9823986 260.666543,15.2633081 C260.666543,10.0280672 258.940758,5.80054866 255.562107,2.55617398 C254.881516,1.91713049 254.516913,1.40097997 254.516913,0.98314384 C254.516913,0.761936476 254.638447,0.516150516 254.808595,0.344100344 C254.978743,0.172050172 255.221811,0.049157192 255.440573,0.049157192 C256.194085,0.049157192 257.336506,0.98314384 258.77061,2.82653854 C261.468669,6.34127777 262.854159,10.5196391 262.854159,15.3862011 L262.854159,15.3862011 L262.854159,15.3862011 Z" id="path31_1_"></path>
                <path d="M251.020755,28.5996802 L231.130922,28.5996802 C230.52267,28.5996802 229.914418,28.1076384 229.914418,27.3695758 C229.914418,26.6930184 230.40102,26.1394715 231.130922,26.1394715 L251.020755,26.1394715 C251.629006,26.1394715 252.237258,26.6315132 252.237258,27.3695758 C252.237258,28.1076384 251.750657,28.5996802 251.020755,28.5996802 L251.020755,28.5996802 Z" id="path37_1_"></path>
                <path d="M236.918762,2.50701679 C236.918762,2.50701679 238.571627,3.66221081 238.571627,5.75139147 C238.571627,9.36444508 233.710259,13.3953348 233.710259,17.1312814 C233.710259,21.1867498 236.772921,23.8412381 239.738355,24.6277532 C240.151571,24.7260676 240.346026,24.2344957 239.811275,24.1116027 C238.62024,23.8166595 237.259057,22.2190508 237.259057,19.712034 C237.259057,17.401646 239.446673,16.5413951 240.346026,15.4107797 C241.245379,14.2555857 241.026617,12.8054485 240.516174,12.3876124 C239.981423,11.9697763 240.346026,11.4044685 241.293993,12.0680906 C242.241959,12.7317127 243.044085,13.9852211 242.752403,15.1895723 C242.3878,16.7134453 242.873937,17.5982747 243.651756,17.6965891 C244.429575,17.7949035 245.304621,17.401646 245.231701,16.6642881 C245.134473,15.9269302 244.69695,15.1404151 244.964325,15.1404151 C245.523383,15.1404151 246.714418,16.5413951 246.714418,18.7534688 C246.714418,20.9655424 244.891405,22.5139939 244.356654,23.1038802 C244.016359,23.4479806 244.453882,23.9149739 244.915712,23.6937666 C245.134473,23.5954522 245.62061,23.300509 245.936599,23.0793017 C247.370702,22.0470006 249.606932,19.95782 249.606932,16.0744018 C249.606932,12.0189334 248.075601,10.2001173 246.54427,8.70082299 C245.012939,7.17695003 244.62403,7.57020757 245.061553,8.30756545 C246.374122,10.5687963 245.571996,11.3307328 244.62403,11.3307328 C243.505915,11.3307328 243.432994,8.77455877 242.995471,6.80827109 C242.023198,2.4578596 238.134104,1.72050172 237.404898,1.67134453 C236.7,1.69592312 236.043715,2.13833785 236.918762,2.50701679 L236.918762,2.50701679 Z" id="Shape"></path>
            </g>
        </g>
    </g>
</svg>
